<svg width="30" height="30" fill="none" xmlns="http://www.w3.org/2000/svg"><path fill-rule="evenodd" clip-rule="evenodd" d="M20.254 19.5H9.674c-2.09 0-3.95-1.53-4.15-3.61a3.998 3.998 0 0 1 3.98-4.39h12.36c1.31 0 2.5.94 2.63 2.24a2.5 2.5 0 0 1-2.49 2.76h-10.5c-.55 0-1-.45-1-1s.45-1 1-1h8.75c.41 0 .75-.34.75-.75s-.34-.75-.75-.75h-8.61c-1.31 0-2.5.94-2.63 2.24a2.5 2.5 0 0 0 2.49 2.76h10.33c2.09 0 3.95-1.53 4.15-3.61a3.993 3.993 0 0 0-3.98-4.39H9.734c-2.87 0-5.44 2.1-5.71 4.96A5.505 5.505 0 0 0 9.504 21h10.75c.41 0 .75-.34.75-.75s-.34-.75-.75-.75Z" fill="#C3CAD9"/></svg>