<svg width="29" height="29" fill="none" xmlns="http://www.w3.org/2000/svg"><path fill-rule="evenodd" clip-rule="evenodd" d="M17.767 16.367h-.737l-.261-.252a6.067 6.067 0 0 0 1.38-4.984c-.438-2.594-2.603-4.666-5.216-4.984a6.071 6.071 0 0 0-6.786 6.786c.318 2.613 2.39 4.778 4.984 5.217a6.067 6.067 0 0 0 4.984-1.381l.252.26v.738l3.967 3.967a.986.986 0 0 0 1.39 0 .986.986 0 0 0 0-1.39l-3.957-3.977Zm-5.6 0a4.194 4.194 0 0 1-4.2-4.2c0-2.324 1.876-4.2 4.2-4.2 2.324 0 4.2 1.876 4.2 4.2 0 2.324-1.876 4.2-4.2 4.2Z" fill="#fff"/></svg>