<svg width="30" height="30" fill="none" xmlns="http://www.w3.org/2000/svg"><path fill-rule="evenodd" clip-rule="evenodd" d="M19 14c1.66 0 2.99-1.34 2.99-3S20.66 8 19 8c-1.66 0-3 1.34-3 3s1.34 3 3 3Zm-8 0c1.66 0 2.99-1.34 2.99-3S12.66 8 11 8c-1.66 0-3 1.34-3 3s1.34 3 3 3Zm0 2c-2.33 0-7 1.17-7 3.5V21c0 .55.45 1 1 1h12c.55 0 1-.45 1-1v-1.5c0-2.33-4.67-3.5-7-3.5Zm8 0c-.29 0-.62.02-.97.05.02.01.03.03.04.04 1.14.83 1.93 1.94 1.93 3.41V21c0 .35-.07.69-.18 1H25c.55 0 1-.45 1-1v-1.5c0-2.33-4.67-3.5-7-3.5Z" fill="#C3CAD9"/></svg>